<?xml version="1.0" encoding="utf-8"?>
<!-- Generator: Adobe Illustrator 29.7.1, SVG Export Plug-In . SVG Version: 9.03 Build 0)  -->
<svg version="1.0" id="Layer_1" xmlns="http://www.w3.org/2000/svg" xmlns:xlink="http://www.w3.org/1999/xlink" x="0px" y="0px"
	 viewBox="0 0 963 1024" style="enable-background:new 0 0 963 1024;" xml:space="preserve">
<style type="text/css">
	.st0{fill:#FFFFFF;}
	.st1{fill:#03AFED;}
</style>
<g>
	<g>
		<path class="st0" d="M116.3,688.77H76.46v-21.53h104.45v21.53h-39.84v104.09H116.3V688.77z"/>
		<path class="st0" d="M194.19,667.24h66.76c10.88,0,19.65,2.93,26.29,8.79s9.96,13.58,9.96,23.15v12.56
			c0,6.22-1.77,11.64-5.29,16.24c-3.53,4.61-8.64,8.11-15.34,10.5v0.36c3.83,2.51,6.73,5.38,8.7,8.61s3.92,7.72,5.83,13.46
			l10.05,31.94h-25.66l-9.51-29.79c-1.56-5.14-3.71-8.97-6.46-11.49c-2.75-2.51-6.16-3.77-10.23-3.77h-30.33v45.04H194.2
			L194.19,667.24L194.19,667.24z M256.28,726.46c5.02,0,8.97-1.35,11.84-4.04s4.31-6.19,4.31-10.5v-11.66
			c0-3.47-1.08-6.25-3.23-8.35c-2.15-2.09-5.03-3.14-8.61-3.14h-41.63v37.69L256.28,726.46L256.28,726.46z"/>
		<path class="st0" d="M317.65,667.24h24.77v125.62h-24.77V667.24z"/>
		<path class="st0" d="M418.15,667.24h66.22c7.3,0,13.76,1.41,19.38,4.22s9.99,6.82,13.1,12.02c3.11,5.21,4.67,11.16,4.67,17.86
			v16.69c0,6.94-1.62,13.07-4.85,18.39c-3.23,5.33-7.75,9.45-13.55,12.38s-12.53,4.4-20.19,4.4h-40.02v39.66h-24.76V667.24z
			 M482.58,731.66c4.19,0,7.6-1.35,10.23-4.04s3.95-6.25,3.95-10.68V702.4c0-4.19-1.17-7.51-3.5-9.96s-5.42-3.68-9.24-3.68h-41.1
			v42.89L482.58,731.66L482.58,731.66z"/>
		<path class="st0" d="M535.16,667.24h66.76c10.88,0,19.65,2.93,26.29,8.79c6.64,5.86,9.96,13.58,9.96,23.15v12.56
			c0,6.22-1.77,11.64-5.29,16.24c-3.53,4.61-8.64,8.11-15.34,10.5v0.36c3.83,2.51,6.73,5.38,8.7,8.61s3.92,7.72,5.83,13.46
			l10.05,31.94h-25.66l-9.51-29.79c-1.56-5.14-3.71-8.97-6.46-11.49c-2.75-2.51-6.16-3.77-10.23-3.77h-30.33v45.04h-24.76v-125.6
			H535.16z M597.25,726.46c5.02,0,8.97-1.35,11.84-4.04c2.87-2.69,4.31-6.19,4.31-10.5v-11.66c0-3.47-1.08-6.25-3.23-8.35
			c-2.15-2.09-5.03-3.14-8.61-3.14h-41.63v37.69L597.25,726.46L597.25,726.46z"/>
		<path class="st0" d="M675.4,788.28c-7.24-4.01-12.86-9.63-16.87-16.87s-6.01-15.64-6.01-25.21v-32.3c0-9.57,2-17.97,6.01-25.21
			c4.01-7.24,9.63-12.86,16.87-16.87s15.58-6.01,25.04-6.01h19.02c9.45,0,17.79,2,25.03,6.01c7.24,4.01,12.86,9.63,16.87,16.87
			s6.01,15.64,6.01,25.21v32.3c0,9.57-2,17.98-6.01,25.21c-4.01,7.24-9.63,12.86-16.87,16.87s-15.58,6.01-25.03,6.01h-19.02
			C690.98,794.29,682.64,792.29,675.4,788.28z M719.46,772.4c6.94,0,12.53-2.51,16.78-7.54c4.25-5.02,6.37-11.6,6.37-19.74v-30.15
			c0-8.13-2.13-14.71-6.37-19.74c-4.25-5.02-9.84-7.54-16.78-7.54h-19.02c-6.94,0-12.53,2.51-16.78,7.54
			c-4.25,5.03-6.37,11.61-6.37,19.74v30.15c0,8.14,2.12,14.72,6.37,19.74c4.25,5.03,9.84,7.54,16.78,7.54H719.46z"/>
		<path class="st0" d="M792.86,783.26c-7.42-7.36-11.13-17.61-11.13-30.78h24.41c0,6.22,1.58,11.1,4.76,14.63
			c3.17,3.53,7.57,5.29,13.19,5.29H844c5.26,0,9.54-1.11,12.83-3.32c3.29-2.21,4.94-5.17,4.94-8.88v-6.1
			c0-5.86-4.31-9.51-12.92-10.95l-33.02-5.56c-10.77-1.79-18.93-5.23-24.5-10.32c-5.56-5.08-8.35-11.58-8.35-19.47v-10.05
			c0-6.34,1.71-11.93,5.12-16.78c3.41-4.85,8.25-8.58,14.54-11.22c6.28-2.63,13.55-3.95,21.8-3.95h20.28
			c7.78,0,14.65,1.62,20.64,4.85c5.98,3.23,10.62,7.75,13.91,13.55s4.94,12.53,4.94,20.19H859.8c0-5.02-1.38-9.06-4.13-12.11
			s-6.4-4.58-10.95-4.58h-20.28c-5.03,0-9.06,1.08-12.11,3.23c-3.05,2.15-4.58,5.02-4.58,8.61v4.85c0,5.98,4.13,9.69,12.38,11.13
			l32.84,5.74c10.89,1.92,19.2,5.29,24.95,10.14c5.74,4.85,8.61,11.1,8.61,18.75v11.84c0,6.34-1.77,11.96-5.29,16.87
			c-3.53,4.91-8.47,8.7-14.81,11.4c-6.34,2.69-13.7,4.04-22.07,4.04h-20.64C810.56,794.29,800.27,790.62,792.86,783.26z"/>
	</g>
	<g>
		<path class="st0" d="M76.67,836.43h31.25c4.81,0,8.68,1.37,11.62,4.09c2.94,2.73,4.41,6.32,4.41,10.75v6.48
			c0,3.12-0.97,5.88-2.89,8.28c-1.93,2.4-4.56,4.14-7.88,5.22v0.09c3.5,2.1,6.11,5.94,7.83,11.52l4.9,16.56h-8.73l-4.81-16.2
			c-0.83-2.82-2.15-5.04-3.96-6.66s-3.87-2.43-6.19-2.43H85.13v25.29h-8.46V836.43z M105.61,866.58c2.97,0,5.36-0.81,7.17-2.43
			s2.72-3.75,2.72-6.39v-6.57c0-2.16-0.71-3.9-2.14-5.22c-1.42-1.32-3.29-1.98-5.61-1.98H85.13v22.59L105.61,866.58L105.61,866.58z"
			/>
		<path class="st0" d="M166.11,897.63c-1.22-1.2-1.83-2.85-1.83-4.95v-56.25H208v7.47h-35.26v19.62h32.58v7.38h-32.58v21.06H208
			v7.47h-36.95C168.97,899.43,167.32,898.83,166.11,897.63z"/>
		<path class="st0" d="M247.44,836.43h7.83l21.63,40.41l21.1-40.41h7.83v63h-8.28v-46.98l-16.38,30.96c-0.71,1.32-1.38,2.25-2,2.79
			s-1.35,0.81-2.18,0.81h-2.4l-18.79-34.56v46.98h-8.37v-63H247.44z"/>
		<path class="st0" d="M356.54,897.27c-3.29-1.92-5.85-4.62-7.66-8.1s-2.72-7.53-2.72-12.15v-18.18c0-4.62,0.9-8.67,2.72-12.15
			c1.81-3.48,4.38-6.18,7.7-8.1s7.15-2.88,11.49-2.88h9.44c4.33,0,8.15,0.96,11.44,2.88s5.84,4.62,7.66,8.1
			c1.81,3.48,2.72,7.53,2.72,12.15v18.18c0,4.62-0.91,8.67-2.72,12.15c-1.81,3.48-4.38,6.18-7.7,8.1s-7.12,2.88-11.4,2.88h-9.53
			C363.65,900.15,359.84,899.19,356.54,897.27z M377.33,892.5c4.04,0,7.3-1.42,9.79-4.28c2.49-2.85,3.74-6.64,3.74-11.38v-17.82
			c0-4.74-1.25-8.53-3.74-11.38s-5.76-4.28-9.79-4.28h-9.17c-4.04,0-7.3,1.43-9.79,4.28c-2.49,2.85-3.74,6.65-3.74,11.38v17.82
			c0,4.74,1.23,8.54,3.7,11.38c2.46,2.85,5.71,4.28,9.75,4.28H377.33z"/>
		<path class="st0" d="M441.48,897.63c-1.22-1.2-1.83-2.85-1.83-4.95v-56.25h27.16c4.51,0,8.47,0.87,11.89,2.61
			c3.41,1.74,6.05,4.22,7.92,7.42c1.87,3.21,2.8,6.88,2.8,11.02v19.08c0,7.5-1.88,13.19-5.65,17.06s-9.3,5.8-16.6,5.8h-20.75
			C444.34,899.43,442.7,898.83,441.48,897.63z M466.9,891.78c4.63,0,8.13-1.29,10.51-3.87c2.37-2.58,3.56-6.42,3.56-11.52v-18.72
			c0-4.08-1.32-7.37-3.96-9.86c-2.64-2.49-6.13-3.73-10.46-3.73h-18.43v47.7L466.9,891.78L466.9,891.78z"/>
		<path class="st0" d="M531.22,897.63c-1.22-1.2-1.83-2.85-1.83-4.95v-56.25h43.71v7.47h-35.26v19.62h32.58v7.38h-32.58v21.06h35.26
			v7.47h-36.95C534.09,899.43,532.44,898.83,531.22,897.63z"/>
		<path class="st0" d="M614.38,897.63c-1.22-1.2-1.83-2.82-1.83-4.86v-56.34h8.46v55.44h33.83v7.56h-35.52
			C617.24,899.43,615.59,898.83,614.38,897.63z"/>
		<path class="st0" d="M693.04,836.43h8.46v63h-8.46V836.43z"/>
		<path class="st0" d="M744.5,836.43h7.83l32.94,49.23v-49.23h8.28v63h-7.75l-33.03-49.05v49.05h-8.28v-63H744.5z"/>
		<path class="st0" d="M843.99,897.27c-3.24-1.92-5.73-4.63-7.48-8.14s-2.63-7.57-2.63-12.2v-18c0-4.62,0.9-8.68,2.72-12.2
			c1.81-3.51,4.35-6.22,7.61-8.14c3.26-1.92,7.03-2.88,11.31-2.88h9.62c4.1,0,7.72,0.85,10.86,2.56c3.15,1.71,5.58,4.14,7.3,7.29
			c1.72,3.15,2.58,6.77,2.58,10.85h-8.28c0-3.9-1.14-7.05-3.43-9.45s-5.3-3.6-9.04-3.6h-9.62c-3.92,0-7.09,1.44-9.53,4.32
			c-2.43,2.88-3.65,6.69-3.65,11.43v17.64c0,4.74,1.17,8.55,3.52,11.43s5.45,4.32,9.3,4.32h9.97c3.8,0,6.9-1.35,9.3-4.05
			c2.4-2.7,3.61-6.18,3.61-10.44v-4.32h-17.27v-7.47h25.55v11.79c0,4.32-0.89,8.16-2.67,11.52c-1.78,3.36-4.27,5.97-7.48,7.83
			c-3.21,1.86-6.89,2.79-11.04,2.79h-9.97C850.95,900.15,847.22,899.19,843.99,897.27z"/>
	</g>
	<circle class="st0" cx="462.26" cy="518.25" r="8.38"/>
	<polygon class="st0" points="475.95,123.85 314.81,218.86 314.81,169.71 264.81,169.71 264.81,248.34 187.44,293.96 187.44,352 
		264.81,306.39 314.81,276.91 475.95,181.9 575.01,240.3 575.01,182.25 	"/>
	<polygon class="st0" points="365.28,339.95 364.91,282.12 314.81,311.66 264.81,341.14 213.53,371.38 187.44,386.76 187.44,444.8 
		213.53,429.42 244.78,411 244.78,410.99 262.75,400.4 264.81,399.19 264.81,586.65 314.81,586.65 314.81,369.71 345.33,351.71 	"/>
	<polygon class="st0" points="475.95,216.66 394.74,264.54 395.11,322.36 395.33,322.23 429.39,302.15 475.95,274.7 494.49,285.63 
		494.49,354.26 395.33,413.85 395.33,356.98 365.5,374.57 345.33,386.46 345.33,586.65 395.33,586.65 395.33,472.18 544.49,382.55 
		544.49,257.07 494.49,227.59 	"/>
	<polygon class="st0" points="493.47,448.78 493.47,586.65 425.86,586.65 425.86,489.33 	"/>
	<g>
		<polygon class="st0" points="544.55,586.63 504.4,586.63 504.4,578.63 536.55,578.63 536.55,477.81 504.4,477.81 504.4,469.81 
			544.55,469.81 		"/>
	</g>
	<path class="st1" d="M739.01,521.85l-24.56-43.56l-14.71-26.09l-1.93-3.42l-5.33-9.44h22.53h50v-46.38
		c0.02-0.04,0.05-0.09,0.07-0.13v-3.49v-64.71v-16.15c-0.02-0.04-0.04-0.08-0.07-0.12v-13.93l-29.73-17.55l-0.14-0.09
		c-1-0.64-2-1.28-3.04-1.88l-17.09-10.08l-89.99-53.09l-24.01-14.16l-25.99-15.33v48.07v9.98v0.02l134.03,79.14l0.03,0.02
		c2.24,1.5,4.21,3.12,5.93,4.84v53.47v11.55h-89.99v-84.8l-50-29.48v311.59h50V439.34h10.08l5.32,9.44l2.27,4.02l28.69,50.88
		l-0.01,0.01l24.56,43.56l0.01-0.01l22.22,39.41h57.4L739.01,521.85z"/>
</g>
</svg>
