<?xml version="1.0" encoding="utf-8"?>
<!-- Generator: Adobe Illustrator 29.7.1, SVG Export Plug-In . SVG Version: 9.03 Build 0)  -->
<svg version="1.0" id="Layer_1" xmlns="http://www.w3.org/2000/svg" xmlns:xlink="http://www.w3.org/1999/xlink" x="0px" y="0px"
	 viewBox="0 0 963 1024" style="enable-background:new 0 0 963 1024;" xml:space="preserve">
<style type="text/css">
	.st0{fill:#FFFFFF;}
	.st1{fill:#03AFED;}
</style>
<g>
	<circle class="st0" cx="462.26" cy="675" r="8.38"/>
	<polygon class="st0" points="475.95,280.6 314.81,375.61 314.81,326.46 264.81,326.46 264.81,405.09 187.44,450.71 187.44,508.75 
		264.81,463.14 314.81,433.66 475.95,338.65 575.01,397.05 575.01,339 	"/>
	<polygon class="st0" points="365.28,496.7 364.91,438.87 314.81,468.41 264.81,497.89 213.53,528.13 187.44,543.51 187.44,601.55 
		213.53,586.17 244.78,567.75 244.78,567.74 262.75,557.15 264.81,555.94 264.81,743.4 314.81,743.4 314.81,526.46 345.33,508.46 	
		"/>
	<polygon class="st0" points="475.95,373.41 394.74,421.29 395.11,479.11 395.33,478.98 429.39,458.9 475.95,431.45 494.49,442.38 
		494.49,511.01 395.33,570.6 395.33,513.73 365.5,531.32 345.33,543.21 345.33,743.4 395.33,743.4 395.33,628.93 544.49,539.3 
		544.49,413.82 494.49,384.34 	"/>
	<polygon class="st0" points="493.47,605.53 493.47,743.4 425.86,743.4 425.86,646.08 	"/>
	<g>
		<polygon class="st0" points="544.55,743.38 504.4,743.38 504.4,735.38 536.55,735.38 536.55,634.56 504.4,634.56 504.4,626.56 
			544.55,626.56 		"/>
	</g>
	<path class="st1" d="M739.01,678.6l-24.56-43.56l-14.71-26.09l-1.93-3.42l-5.33-9.44h22.53h50v-46.38
		c0.02-0.04,0.05-0.09,0.07-0.13v-3.49v-64.71v-16.15c-0.02-0.04-0.04-0.08-0.07-0.12v-13.93l-29.73-17.55l-0.14-0.09
		c-1-0.64-2-1.28-3.04-1.88l-17.09-10.08l-89.99-53.09l-24.01-14.16L575.02,339v48.07v9.98v0.02l134.03,79.14l0.03,0.02
		c2.24,1.5,4.21,3.12,5.93,4.84v53.47v11.55h-89.99v-84.8l-50-29.48V743.4h50V596.09h10.08l5.32,9.44l2.27,4.02l28.69,50.88
		l-0.01,0.01L695.93,704l0.01-0.01l22.22,39.41h57.4L739.01,678.6z"/>
</g>
</svg>
