<svg width="1693" height="463" viewBox="0 0 1693 463" fill="none" xmlns="http://www.w3.org/2000/svg">
<path d="M724.15 197.02H674.06V169.94H805.39V197.02H755.3V327.9H724.16V197.02H724.15Z" fill="white"/>
<path d="M822.08 169.94H906.02C919.71 169.94 930.73 173.63 939.08 181C947.43 188.37 951.6 198.08 951.6 210.11V225.91C951.6 233.73 949.38 240.54 944.94 246.33C940.5 252.12 934.07 256.52 925.65 259.53V259.98C930.46 263.14 934.11 266.75 936.59 270.81C939.07 274.87 941.52 280.51 943.92 287.73L956.56 327.9H924.29L912.33 290.44C910.37 283.97 907.67 279.16 904.21 276C900.75 272.84 896.46 271.26 891.35 271.26H853.21V327.9H822.07V169.94H822.08ZM900.15 244.4C906.47 244.4 911.43 242.71 915.04 239.32C918.65 235.93 920.46 231.53 920.46 226.12V211.45C920.46 207.09 919.11 203.59 916.4 200.96C913.69 198.33 910.08 197.01 905.57 197.01H853.22V244.4H900.15Z" fill="white"/>
<path d="M977.32 169.94H1008.46V327.89H977.32V169.94Z" fill="white"/>
<path d="M1103.68 169.94H1186.94C1196.11 169.94 1204.24 171.71 1211.31 175.24C1218.38 178.78 1223.87 183.81 1227.78 190.36C1231.69 196.9 1233.65 204.39 1233.65 212.81V233.8C1233.65 242.53 1231.62 250.24 1227.56 256.93C1223.5 263.63 1217.82 268.82 1210.52 272.5C1203.22 276.19 1194.76 278.03 1185.13 278.03H1134.81V327.9H1103.67V169.94H1103.68ZM1184.69 250.95C1189.95 250.95 1194.24 249.26 1197.55 245.87C1200.86 242.48 1202.51 238.01 1202.51 232.44V214.16C1202.51 208.9 1201.04 204.72 1198.11 201.64C1195.18 198.56 1191.3 197.01 1186.49 197.01H1134.82V250.94H1184.69V250.95Z" fill="white"/>
<path d="M1250.81 169.94H1334.75C1348.44 169.94 1359.46 173.63 1367.81 181C1376.16 188.37 1380.33 198.08 1380.33 210.11V225.91C1380.33 233.73 1378.11 240.54 1373.67 246.33C1369.23 252.12 1362.8 256.52 1354.38 259.53V259.98C1359.19 263.14 1362.84 266.75 1365.32 270.81C1367.8 274.87 1370.25 280.51 1372.65 287.73L1385.29 327.9H1353.02L1341.06 290.44C1339.1 283.97 1336.4 279.16 1332.94 276C1329.48 272.84 1325.19 271.26 1320.08 271.26H1281.94V327.9H1250.8V169.94H1250.81ZM1328.88 244.4C1335.2 244.4 1340.16 242.71 1343.77 239.32C1347.38 235.93 1349.19 231.53 1349.19 226.12V211.45C1349.19 207.09 1347.84 203.59 1345.13 200.96C1342.42 198.33 1338.81 197.01 1334.3 197.01H1281.95V244.4H1328.88Z" fill="white"/>
<path d="M1427.15 322.14C1418.05 317.1 1410.98 310.03 1405.94 300.93C1400.9 291.83 1398.38 281.26 1398.38 269.23V228.61C1398.38 216.58 1400.9 206.01 1405.94 196.91C1410.98 187.81 1418.05 180.74 1427.15 175.7C1436.25 170.66 1446.74 168.14 1458.63 168.14H1482.55C1494.43 168.14 1504.93 170.66 1514.03 175.7C1523.13 180.74 1530.2 187.81 1535.24 196.91C1540.28 206.01 1542.8 216.58 1542.8 228.61V269.23C1542.8 281.27 1540.28 291.83 1535.24 300.93C1530.2 310.03 1523.13 317.1 1514.03 322.14C1504.93 327.18 1494.43 329.7 1482.55 329.7H1458.63C1446.74 329.7 1436.25 327.18 1427.15 322.14ZM1482.55 302.17C1491.27 302.17 1498.31 299.01 1503.65 292.69C1508.99 286.37 1511.66 278.1 1511.66 267.87V229.96C1511.66 219.73 1508.99 211.46 1503.65 205.14C1498.31 198.82 1491.27 195.66 1482.55 195.66H1458.63C1449.9 195.66 1442.87 198.82 1437.53 205.14C1432.19 211.46 1429.52 219.73 1429.52 229.96V267.87C1429.52 278.1 1432.19 286.37 1437.53 292.69C1442.87 299.01 1449.9 302.17 1458.63 302.17H1482.55Z" fill="white"/>
<path d="M1574.84 315.82C1565.51 306.57 1560.85 293.67 1560.85 277.12H1591.54C1591.54 284.94 1593.53 291.07 1597.52 295.51C1601.5 299.95 1607.03 302.17 1614.11 302.17H1639.16C1645.78 302.17 1651.15 300.78 1655.29 298C1659.43 295.22 1661.5 291.49 1661.5 286.83V279.16C1661.5 271.79 1656.08 267.2 1645.25 265.4L1603.73 258.4C1590.19 256.14 1579.92 251.82 1572.93 245.42C1565.93 239.03 1562.44 230.87 1562.44 220.94V208.3C1562.44 200.33 1564.58 193.29 1568.87 187.2C1573.16 181.11 1579.25 176.41 1587.15 173.1C1595.05 169.79 1604.19 168.14 1614.57 168.14H1640.07C1649.85 168.14 1658.5 170.17 1666.02 174.23C1673.54 178.29 1679.37 183.97 1683.51 191.27C1687.65 198.57 1689.72 207.03 1689.72 216.66H1659.03C1659.03 210.34 1657.3 205.26 1653.84 201.43C1650.38 197.59 1645.79 195.68 1640.08 195.68H1614.58C1608.26 195.68 1603.18 197.03 1599.35 199.74C1595.51 202.45 1593.6 206.06 1593.6 210.57V216.66C1593.6 224.18 1598.79 228.85 1609.17 230.65L1650.46 237.87C1664.15 240.28 1674.6 244.53 1681.83 250.62C1689.05 256.71 1692.66 264.58 1692.66 274.2V289.09C1692.66 297.07 1690.44 304.13 1686 310.3C1681.56 316.47 1675.36 321.24 1667.38 324.63C1659.4 328.02 1650.15 329.71 1639.63 329.71H1613.68C1597.1 329.7 1584.16 325.07 1574.84 315.82Z" fill="white"/>
<path d="M674.32 382.68H713.61C719.66 382.68 724.52 384.4 728.22 387.83C731.91 391.26 733.76 395.77 733.76 401.35V409.5C733.76 413.42 732.55 416.89 730.12 419.91C727.69 422.93 724.39 425.12 720.21 426.47V426.58C724.61 429.22 727.9 434.05 730.06 441.07L736.22 461.89H725.25L719.2 441.52C718.15 437.97 716.49 435.18 714.22 433.15C711.94 431.11 709.35 430.09 706.44 430.09H684.95V461.89H674.31V382.68H674.32ZM710.7 420.59C714.43 420.59 717.44 419.57 719.71 417.53C721.98 415.49 723.12 412.82 723.12 409.5V401.24C723.12 398.52 722.22 396.34 720.43 394.68C718.64 393.02 716.29 392.19 713.38 392.19H684.95V420.6H710.7V420.59Z" fill="white"/>
<path d="M786.77 459.64C785.24 458.13 784.48 456.06 784.48 453.42V382.69H839.45V392.08H795.12V416.75H836.09V426.03H795.12V452.51H839.45V461.9H792.99C790.37 461.9 788.3 461.15 786.77 459.64Z" fill="white"/>
<path d="M889.03 382.68H898.88L926.08 433.49L952.61 382.68H962.46V461.9H952.05V402.83L931.45 441.76C930.55 443.42 929.72 444.59 928.93 445.27C928.15 445.95 927.23 446.29 926.19 446.29H923.17L899.55 402.83V461.9H889.03V382.68Z" fill="white"/>
<path d="M1026.22 459.18C1022.08 456.77 1018.87 453.37 1016.59 449C1014.31 444.62 1013.18 439.53 1013.18 433.72V410.86C1013.18 405.05 1014.32 399.96 1016.59 395.58C1018.87 391.21 1022.09 387.81 1026.27 385.4C1030.45 382.99 1035.26 381.78 1040.71 381.78H1052.58C1058.03 381.78 1062.82 382.99 1066.97 385.4C1071.11 387.82 1074.32 391.21 1076.6 395.58C1078.88 399.96 1080.01 405.05 1080.01 410.86V433.72C1080.01 439.53 1078.87 444.62 1076.6 449C1074.32 453.38 1071.1 456.77 1066.92 459.18C1062.74 461.6 1057.96 462.8 1052.59 462.8H1040.61C1035.16 462.8 1030.37 461.6 1026.22 459.18ZM1052.36 453.19C1057.43 453.19 1061.54 451.4 1064.67 447.81C1067.8 444.23 1069.37 439.46 1069.37 433.49V411.08C1069.37 405.12 1067.8 400.35 1064.67 396.76C1061.54 393.18 1057.43 391.38 1052.36 391.38H1040.83C1035.75 391.38 1031.65 393.17 1028.52 396.76C1025.39 400.34 1023.82 405.12 1023.82 411.08V433.49C1023.82 439.45 1025.37 444.22 1028.47 447.81C1031.57 451.39 1035.65 453.19 1040.73 453.19H1052.36Z" fill="white"/>
<path d="M1133.02 459.64C1131.49 458.13 1130.72 456.06 1130.72 453.42V382.69H1164.86C1170.53 382.69 1175.51 383.78 1179.8 385.97C1184.09 388.16 1187.41 391.27 1189.76 395.31C1192.11 399.35 1193.29 403.97 1193.29 409.17V433.16C1193.29 442.59 1190.92 449.74 1186.18 454.61C1181.44 459.48 1174.48 461.91 1165.3 461.91H1139.22C1136.62 461.9 1134.55 461.15 1133.02 459.64ZM1164.98 452.28C1170.8 452.28 1175.2 450.66 1178.19 447.42C1181.17 444.18 1182.67 439.35 1182.67 432.93V409.39C1182.67 404.26 1181.01 400.13 1177.69 397C1174.37 393.87 1169.98 392.3 1164.54 392.3H1141.37V452.28H1164.98Z" fill="white"/>
<path d="M1245.86 459.64C1244.33 458.13 1243.57 456.06 1243.57 453.42V382.69H1298.54V392.08H1254.21V416.75H1295.18V426.03H1254.21V452.51H1298.54V461.9H1252.08C1249.46 461.9 1247.39 461.15 1245.86 459.64Z" fill="white"/>
<path d="M1350.42 459.64C1348.89 458.13 1348.12 456.09 1348.12 453.53V382.69H1358.76V452.4H1401.3V461.91H1356.63C1354.02 461.9 1351.95 461.15 1350.42 459.64Z" fill="white"/>
<path d="M1449.33 382.68H1459.97V461.9H1449.33V382.68Z" fill="white"/>
<path d="M1514.03 382.68H1523.88L1565.3 444.58V382.68H1575.71V461.9H1565.97L1524.44 400.23V461.9H1514.03V382.68Z" fill="white"/>
<path d="M1639.13 459.18C1635.06 456.77 1631.93 453.35 1629.73 448.94C1627.53 444.53 1626.43 439.42 1626.43 433.61V410.98C1626.43 405.17 1627.57 400.06 1629.84 395.65C1632.12 391.24 1635.31 387.82 1639.41 385.41C1643.51 383 1648.25 381.79 1653.63 381.79H1665.72C1670.87 381.79 1675.42 382.86 1679.38 385.01C1683.34 387.16 1686.39 390.22 1688.56 394.18C1690.72 398.14 1691.81 402.69 1691.81 407.82H1681.4C1681.4 402.92 1679.96 398.96 1677.09 395.94C1674.22 392.92 1670.43 391.41 1665.73 391.41H1653.64C1648.71 391.41 1644.72 393.22 1641.66 396.84C1638.6 400.46 1637.07 405.25 1637.07 411.21V433.39C1637.07 439.35 1638.54 444.14 1641.49 447.76C1644.44 451.38 1648.34 453.19 1653.19 453.19H1665.73C1670.51 453.19 1674.41 451.49 1677.43 448.1C1680.45 444.71 1681.96 440.33 1681.96 434.97V429.54H1660.24V420.15H1692.37V434.97C1692.37 440.4 1691.25 445.23 1689.01 449.45C1686.77 453.68 1683.64 456.96 1679.61 459.3C1675.58 461.64 1670.95 462.81 1665.73 462.81H1653.19C1647.88 462.8 1643.2 461.6 1639.13 459.18Z" fill="white"/>
<path d="M274.82 402.79C279.448 402.79 283.2 399.038 283.2 394.41C283.2 389.782 279.448 386.03 274.82 386.03C270.192 386.03 266.44 389.782 266.44 394.41C266.44 399.038 270.192 402.79 274.82 402.79Z" fill="white"/>
<path d="M288.51 0L127.37 95.01V45.86H77.37V124.49L0 170.11V228.15L77.37 182.54L127.37 153.06L288.51 58.05L387.57 116.45V58.4L288.51 0Z" fill="white"/>
<path d="M177.84 216.1L177.47 158.27L127.37 187.81L77.37 217.29L26.09 247.53L0 262.91V320.95L26.09 305.57L57.34 287.15V287.14L75.31 276.55L77.37 275.34V462.8H127.37V245.86L157.89 227.86L177.84 216.1Z" fill="white"/>
<path d="M288.51 92.8101L207.3 140.69L207.67 198.51L207.89 198.38L241.95 178.3L288.51 150.85L307.05 161.78V230.41L207.89 290V233.13L178.06 250.72L157.89 262.61V462.8H207.89V348.33L357.05 258.7V133.22L307.05 103.74L288.51 92.8101Z" fill="white"/>
<path d="M306.03 324.93V462.8H238.42V365.48L306.03 324.93Z" fill="white"/>
<path d="M357.11 462.79H316.96V454.79H349.11V353.96H316.96V345.96H357.11V462.79Z" fill="white"/>
<path d="M551.57 398L527.01 354.44L512.3 328.35L510.37 324.93L505.04 315.49H527.57H577.57V269.11C577.59 269.07 577.62 269.02 577.64 268.98V265.49V200.78V184.63C577.62 184.59 577.6 184.55 577.57 184.51V170.58L547.84 153.03L547.7 152.94C546.7 152.3 545.7 151.66 544.66 151.06L527.57 140.98L437.58 87.8899L413.57 73.7299L387.58 58.3999V106.47V116.45V116.47L521.61 195.61L521.64 195.63C523.88 197.13 525.85 198.75 527.57 200.47V253.94V265.49H437.58V180.69L387.58 151.21V462.8H437.58V315.49H447.66L452.98 324.93L455.25 328.95L483.94 379.83L483.93 379.84L508.49 423.4L508.5 423.39L530.72 462.8H588.12L551.57 398Z" fill="#03AFED"/>
</svg>
