<svg width="589" height="463" viewBox="0 0 589 463" fill="none" xmlns="http://www.w3.org/2000/svg">
<path d="M274.82 402.78C279.448 402.78 283.2 399.028 283.2 394.4C283.2 389.772 279.448 386.02 274.82 386.02C270.192 386.02 266.44 389.772 266.44 394.4C266.44 399.028 270.192 402.78 274.82 402.78Z" fill="black"/>
<path d="M288.51 0L127.37 95.01V45.86H77.37V124.49L0 170.11V228.15L77.37 182.54L127.37 153.06L288.51 58.05L387.57 116.45V58.4L288.51 0Z" fill="black"/>
<path d="M177.84 216.1L177.47 158.27L127.37 187.81L77.37 217.29L26.09 247.53L0 262.91V320.95L26.09 305.57L57.34 287.15V287.14L75.31 276.55L77.37 275.34V462.8H127.37V245.86L157.89 227.86L177.84 216.1Z" fill="black"/>
<path d="M288.51 92.81L207.3 140.69L207.67 198.51L207.89 198.38L241.95 178.3L288.51 150.85L307.05 161.78V230.41L207.89 290V233.13L178.06 250.72L157.89 262.61V462.8H207.89V348.33L357.05 258.7V133.22L307.05 103.74L288.51 92.81Z" fill="black"/>
<path d="M306.03 324.93V462.8H238.42V365.48L306.03 324.93Z" fill="black"/>
<path d="M357.11 462.78H316.96V454.78H349.11V353.96H316.96V345.96H357.11V462.78Z" fill="black"/>
<path d="M551.57 398L527.01 354.44L512.3 328.35L510.37 324.93L505.04 315.49H527.57H577.57V269.11C577.59 269.07 577.62 269.02 577.64 268.98V265.49V200.78V184.63C577.62 184.59 577.6 184.55 577.57 184.51V170.58L547.84 153.03L547.7 152.94C546.7 152.3 545.7 151.66 544.66 151.06L527.57 140.98L437.58 87.89L413.57 73.73L387.58 58.4V106.47V116.45V116.47L521.61 195.61L521.64 195.63C523.88 197.13 525.85 198.75 527.57 200.47V253.94V265.49H437.58V180.69L387.58 151.21V462.8H437.58V315.49H447.66L452.98 324.93L455.25 328.95L483.94 379.83L483.93 379.84L508.49 423.4L508.5 423.39L530.72 462.8H588.12L551.57 398Z" fill="#03AFED"/>
</svg>
