<?xml version="1.0" encoding="utf-8"?>
<!-- Generator: Adobe Illustrator 29.7.1, SVG Export Plug-In . SVG Version: 9.03 Build 0)  -->
<svg version="1.0" id="Layer_1" xmlns="http://www.w3.org/2000/svg" xmlns:xlink="http://www.w3.org/1999/xlink" x="0px" y="0px"
	 viewBox="0 0 1984.55 758.31" style="enable-background:new 0 0 1984.55 758.31;" xml:space="preserve">
<style type="text/css">
	.st0{fill:#FFFFFF;}
	.st1{fill:#03AFED;}
</style>
<g>
	<g>
		<g>
			<path class="st0" d="M870.11,344.77h-50.09v-27.08h131.33v27.08h-50.09v130.88h-31.14V344.77z"/>
			<path class="st0" d="M968.04,317.69h83.94c13.69,0,24.71,3.69,33.06,11.06c8.35,7.37,12.52,17.08,12.52,29.11v15.8
				c0,7.82-2.22,14.63-6.66,20.42c-4.44,5.79-10.87,10.19-19.29,13.2v0.45c4.81,3.16,8.46,6.77,10.94,10.83
				c2.48,4.06,4.93,9.7,7.33,16.92l12.64,40.17h-32.27l-11.96-37.46c-1.96-6.47-4.66-11.28-8.12-14.44
				c-3.46-3.16-7.75-4.74-12.86-4.74h-38.14v56.64h-31.14V317.69z M1046.11,392.15c6.32,0,11.28-1.69,14.89-5.08
				c3.61-3.39,5.42-7.79,5.42-13.2v-14.67c0-4.36-1.35-7.86-4.06-10.49c-2.71-2.63-6.32-3.95-10.83-3.95h-52.35v47.39H1046.11z"/>
			<path class="st0" d="M1123.28,317.69h31.14v157.95h-31.14V317.69z"/>
			<path class="st0" d="M1249.64,317.69h83.26c9.17,0,17.3,1.77,24.37,5.3c7.07,3.54,12.56,8.57,16.47,15.12
				c3.91,6.54,5.87,14.03,5.87,22.45v20.99c0,8.73-2.03,16.44-6.09,23.13c-4.06,6.7-9.74,11.89-17.04,15.57
				c-7.3,3.69-15.76,5.53-25.39,5.53h-50.32v49.87h-31.14V317.69z M1330.65,398.7c5.26,0,9.55-1.69,12.86-5.08
				c3.31-3.39,4.96-7.86,4.96-13.43v-18.28c0-5.26-1.47-9.44-4.4-12.52c-2.93-3.08-6.81-4.63-11.62-4.63h-51.67v53.93H1330.65z"/>
			<path class="st0" d="M1396.77,317.69h83.94c13.69,0,24.71,3.69,33.06,11.06c8.35,7.37,12.52,17.08,12.52,29.11v15.8
				c0,7.82-2.22,14.63-6.66,20.42c-4.44,5.79-10.87,10.19-19.29,13.2v0.45c4.81,3.16,8.46,6.77,10.94,10.83
				c2.48,4.06,4.93,9.7,7.33,16.92l12.64,40.17h-32.27l-11.96-37.46c-1.96-6.47-4.66-11.28-8.12-14.44
				c-3.46-3.16-7.75-4.74-12.86-4.74h-38.14v56.64h-31.14V317.69z M1474.84,392.15c6.32,0,11.28-1.69,14.89-5.08
				c3.61-3.39,5.42-7.79,5.42-13.2v-14.67c0-4.36-1.35-7.86-4.06-10.49c-2.71-2.63-6.32-3.95-10.83-3.95h-52.35v47.39H1474.84z"/>
			<path class="st0" d="M1573.11,469.89c-9.1-5.04-16.17-12.11-21.21-21.21c-5.04-9.1-7.56-19.67-7.56-31.7v-40.62
				c0-12.03,2.52-22.6,7.56-31.7c5.04-9.1,12.11-16.17,21.21-21.21c9.1-5.04,19.59-7.56,31.48-7.56h23.92
				c11.88,0,22.38,2.52,31.48,7.56c9.1,5.04,16.17,12.11,21.21,21.21c5.04,9.1,7.56,19.67,7.56,31.7v40.62
				c0,12.04-2.52,22.6-7.56,31.7c-5.04,9.1-12.11,16.17-21.21,21.21c-9.1,5.04-19.6,7.56-31.48,7.56h-23.92
				C1592.7,477.45,1582.21,474.93,1573.11,469.89z M1628.51,449.92c8.72,0,15.76-3.16,21.1-9.48c5.34-6.32,8.01-14.59,8.01-24.82
				v-37.91c0-10.23-2.67-18.5-8.01-24.82c-5.34-6.32-12.38-9.48-21.1-9.48h-23.92c-8.73,0-15.76,3.16-21.1,9.48
				c-5.34,6.32-8.01,14.59-8.01,24.82v37.91c0,10.23,2.67,18.5,8.01,24.82c5.34,6.32,12.37,9.48,21.1,9.48H1628.51z"/>
			<path class="st0" d="M1720.8,463.57c-9.33-9.25-13.99-22.15-13.99-38.7h30.69c0,7.82,1.99,13.95,5.98,18.39
				c3.98,4.44,9.51,6.66,16.59,6.66h25.05c6.62,0,11.99-1.39,16.13-4.17c4.14-2.78,6.21-6.51,6.21-11.17v-7.67
				c0-7.37-5.42-11.96-16.25-13.76l-41.52-7c-13.54-2.26-23.81-6.58-30.8-12.98c-7-6.39-10.49-14.55-10.49-24.48v-12.64
				c0-7.97,2.14-15.01,6.43-21.1c4.29-6.09,10.38-10.79,18.28-14.1c7.9-3.31,17.04-4.96,27.42-4.96h25.5
				c9.78,0,18.43,2.03,25.95,6.09c7.52,4.06,13.35,9.74,17.49,17.04c4.14,7.3,6.21,15.76,6.21,25.39h-30.69
				c0-6.32-1.73-11.4-5.19-15.23c-3.46-3.84-8.05-5.75-13.76-5.75h-25.5c-6.32,0-11.4,1.35-15.23,4.06
				c-3.84,2.71-5.75,6.32-5.75,10.83v6.09c0,7.52,5.19,12.19,15.57,13.99l41.29,7.22c13.69,2.41,24.14,6.66,31.37,12.75
				c7.22,6.09,10.83,13.96,10.83,23.58v14.89c0,7.98-2.22,15.04-6.66,21.21c-4.44,6.17-10.64,10.94-18.62,14.33
				c-7.98,3.39-17.23,5.08-27.75,5.08h-25.95C1743.06,477.45,1730.12,472.82,1720.8,463.57z"/>
		</g>
		<g>
			<path class="st0" d="M820.28,530.43h39.29c6.05,0,10.91,1.72,14.61,5.15c3.69,3.43,5.54,7.94,5.54,13.52v8.15
				c0,3.92-1.21,7.39-3.64,10.41c-2.43,3.02-5.73,5.21-9.91,6.56v0.11c4.4,2.64,7.69,7.47,9.85,14.49l6.16,20.82h-10.97l-6.05-20.37
				c-1.05-3.55-2.71-6.34-4.98-8.37c-2.28-2.04-4.87-3.06-7.78-3.06h-21.49v31.8h-10.64V530.43z M856.66,568.34
				c3.73,0,6.74-1.02,9.01-3.06s3.41-4.71,3.41-8.03v-8.26c0-2.72-0.9-4.9-2.69-6.56c-1.79-1.66-4.14-2.49-7.05-2.49h-28.43v28.41
				H856.66z"/>
			<path class="st0" d="M932.73,607.39c-1.53-1.51-2.29-3.58-2.29-6.22v-70.73h54.97v9.39h-44.33v24.67h40.97v9.28h-40.97v26.48
				h44.33v9.39h-46.46C936.33,609.65,934.26,608.9,932.73,607.39z"/>
			<path class="st0" d="M1034.99,530.43h9.85l27.2,50.81l26.53-50.81h9.85v79.22h-10.41v-59.07l-20.6,38.93
				c-0.9,1.66-1.73,2.83-2.52,3.51c-0.78,0.68-1.7,1.02-2.74,1.02h-3.02l-23.62-43.46v59.07h-10.52V530.43z"/>
			<path class="st0" d="M1172.18,606.93c-4.14-2.41-7.35-5.81-9.63-10.18c-2.28-4.38-3.41-9.47-3.41-15.28v-22.86
				c0-5.81,1.14-10.9,3.41-15.28c2.28-4.37,5.5-7.77,9.68-10.18c4.18-2.41,8.99-3.62,14.44-3.62h11.87c5.45,0,10.24,1.21,14.39,3.62
				c4.14,2.42,7.35,5.81,9.63,10.18c2.28,4.38,3.41,9.47,3.41,15.28v22.86c0,5.81-1.14,10.9-3.41,15.28
				c-2.28,4.38-5.5,7.77-9.68,10.18c-4.18,2.42-8.96,3.62-14.33,3.62h-11.98C1181.12,610.55,1176.33,609.35,1172.18,606.93z
				 M1198.32,600.94c5.07,0,9.18-1.79,12.31-5.38c3.13-3.58,4.7-8.35,4.7-14.32v-22.41c0-5.96-1.57-10.73-4.7-14.32
				c-3.13-3.58-7.24-5.38-12.31-5.38h-11.53c-5.08,0-9.18,1.79-12.31,5.38c-3.13,3.58-4.7,8.36-4.7,14.32v22.41
				c0,5.96,1.55,10.73,4.65,14.32c3.1,3.58,7.18,5.38,12.26,5.38H1198.32z"/>
			<path class="st0" d="M1278.98,607.39c-1.53-1.51-2.3-3.58-2.3-6.22v-70.73h34.14c5.67,0,10.65,1.09,14.94,3.28
				c4.29,2.19,7.61,5.3,9.96,9.34c2.35,4.04,3.53,8.66,3.53,13.86v23.99c0,9.43-2.37,16.58-7.11,21.45
				c-4.74,4.87-11.7,7.3-20.88,7.3h-26.08C1282.58,609.65,1280.51,608.9,1278.98,607.39z M1310.94,600.03
				c5.82,0,10.22-1.62,13.21-4.86c2.98-3.24,4.48-8.07,4.48-14.49v-23.54c0-5.13-1.66-9.26-4.98-12.39
				c-3.32-3.13-7.71-4.7-13.15-4.7h-23.17v59.98H1310.94z"/>
			<path class="st0" d="M1391.82,607.39c-1.53-1.51-2.29-3.58-2.29-6.22v-70.73h54.97v9.39h-44.33v24.67h40.97v9.28h-40.97v26.48
				h44.33v9.39h-46.46C1395.42,609.65,1393.35,608.9,1391.82,607.39z"/>
			<path class="st0" d="M1496.38,607.39c-1.53-1.51-2.3-3.55-2.3-6.11v-70.84h10.64v69.71h42.54v9.51h-44.67
				C1499.98,609.65,1497.91,608.9,1496.38,607.39z"/>
			<path class="st0" d="M1595.29,530.43h10.64v79.22h-10.64V530.43z"/>
			<path class="st0" d="M1659.99,530.43h9.85l41.42,61.9v-61.9h10.41v79.22h-9.74l-41.53-61.67v61.67h-10.41V530.43z"/>
			<path class="st0" d="M1785.09,606.93c-4.07-2.41-7.2-5.83-9.4-10.24c-2.2-4.41-3.3-9.52-3.3-15.33v-22.63
				c0-5.81,1.14-10.92,3.41-15.33c2.28-4.41,5.47-7.83,9.57-10.24c4.1-2.41,8.84-3.62,14.22-3.62h12.09c5.15,0,9.7,1.07,13.66,3.22
				c3.96,2.15,7.01,5.21,9.18,9.17c2.16,3.96,3.25,8.51,3.25,13.64h-10.41c0-4.9-1.44-8.86-4.31-11.88
				c-2.87-3.02-6.66-4.53-11.36-4.53h-12.09c-4.93,0-8.92,1.81-11.98,5.43c-3.06,3.62-4.59,8.41-4.59,14.37v22.18
				c0,5.96,1.47,10.75,4.42,14.37c2.95,3.62,6.85,5.43,11.7,5.43h12.54c4.78,0,8.68-1.7,11.7-5.09c3.02-3.39,4.53-7.77,4.53-13.13
				v-5.43h-21.72v-9.39h32.13v14.82c0,5.43-1.12,10.26-3.36,14.48c-2.24,4.23-5.37,7.51-9.4,9.85c-4.03,2.34-8.66,3.51-13.88,3.51
				h-12.54C1793.84,610.55,1789.16,609.35,1785.09,606.93z"/>
		</g>
	</g>
	<circle class="st0" cx="420.78" cy="542.16" r="8.38"/>
	<polygon class="st0" points="434.47,147.75 273.33,242.76 273.33,193.61 223.33,193.61 223.33,272.24 145.96,317.86 145.96,375.9 
		223.33,330.29 273.33,300.81 434.47,205.8 533.53,264.2 533.53,206.15 	"/>
	<polygon class="st0" points="323.8,363.85 323.43,306.02 273.33,335.56 223.33,365.04 172.05,395.28 145.96,410.66 145.96,468.7 
		172.05,453.32 203.3,434.9 203.3,434.89 221.27,424.3 223.33,423.09 223.33,610.55 273.33,610.55 273.33,393.61 303.85,375.61 	"/>
	<polygon class="st0" points="434.47,240.56 353.26,288.44 353.63,346.26 353.85,346.13 387.91,326.05 434.47,298.6 453.01,309.53 
		453.01,378.16 353.85,437.75 353.85,380.88 324.02,398.47 303.85,410.36 303.85,610.55 353.85,610.55 353.85,496.08 503.01,406.45 
		503.01,280.97 453.01,251.49 	"/>
	<polygon class="st0" points="451.99,472.68 451.99,610.55 384.38,610.55 384.38,513.23 	"/>
	<g>
		<polygon class="st0" points="503.07,610.54 462.92,610.54 462.92,602.54 495.07,602.54 495.07,501.71 462.92,501.71 
			462.92,493.71 503.07,493.71 		"/>
	</g>
	<path class="st1" d="M697.53,545.75l-24.56-43.56l-14.71-26.09l-1.93-3.42l-5.33-9.44h22.53h50v-46.38
		c0.02-0.04,0.05-0.09,0.07-0.13v-3.49v-64.71v-16.15c-0.02-0.04-0.04-0.08-0.07-0.12v-13.93l-29.73-17.55l-0.14-0.09
		c-1-0.64-2-1.28-3.04-1.88l-17.09-10.08l-89.99-53.09l-24.01-14.16l-25.99-15.33v48.07v9.98v0.02l134.03,79.14l0.03,0.02
		c2.24,1.5,4.21,3.12,5.93,4.84v53.47v11.55h-89.99v-84.8l-50-29.48v311.59h50V463.24h10.08l5.32,9.44l2.27,4.02l28.69,50.88
		l-0.01,0.01l24.56,43.56l0.01-0.01l22.22,39.41h57.4L697.53,545.75z"/>
</g>
</svg>
