<svg width="811" height="777" viewBox="0 0 811 777" fill="none" xmlns="http://www.w3.org/2000/svg">
<path d="M39.84 564.92H0V543.39H104.45V564.92H64.61V669.01H39.84V564.92Z" fill="white"/>
<path d="M117.73 543.39H184.49C195.37 543.39 204.14 546.32 210.78 552.18C217.42 558.04 220.74 565.76 220.74 575.33V587.89C220.74 594.11 218.97 599.53 215.45 604.13C211.92 608.74 206.81 612.24 200.11 614.63V614.99C203.94 617.5 206.84 620.37 208.81 623.6C210.78 626.83 212.73 631.32 214.64 637.06L224.69 669H199.03L189.52 639.21C187.96 634.07 185.81 630.24 183.06 627.72C180.31 625.21 176.9 623.95 172.83 623.95H142.5V668.99H117.74L117.73 543.39ZM179.82 602.61C184.84 602.61 188.79 601.26 191.66 598.57C194.53 595.88 195.97 592.38 195.97 588.07V576.41C195.97 572.94 194.89 570.16 192.74 568.06C190.59 565.97 187.71 564.92 184.13 564.92H142.5V602.61H179.82Z" fill="white"/>
<path d="M241.19 543.39H265.96V669.01H241.19V543.39Z" fill="white"/>
<path d="M341.69 543.39H407.91C415.21 543.39 421.67 544.8 427.29 547.61C432.91 550.42 437.28 554.43 440.39 559.63C443.5 564.84 445.06 570.79 445.06 577.49V594.18C445.06 601.12 443.44 607.25 440.21 612.57C436.98 617.9 432.46 622.02 426.66 624.95C420.86 627.88 414.13 629.35 406.47 629.35H366.45V669.01H341.69V543.39ZM406.12 607.81C410.31 607.81 413.72 606.46 416.35 603.77C418.98 601.08 420.3 597.52 420.3 593.09V578.55C420.3 574.36 419.13 571.04 416.8 568.59C414.47 566.14 411.38 564.91 407.56 564.91H366.46V607.8L406.12 607.81Z" fill="white"/>
<path d="M458.7 543.39H525.46C536.34 543.39 545.11 546.32 551.75 552.18C558.39 558.04 561.71 565.76 561.71 575.33V587.89C561.71 594.11 559.94 599.53 556.42 604.13C552.89 608.74 547.78 612.24 541.08 614.63V614.99C544.91 617.5 547.81 620.37 549.78 623.6C551.75 626.83 553.7 631.32 555.61 637.06L565.66 669H540L530.49 639.21C528.93 634.07 526.78 630.24 524.03 627.72C521.28 625.21 517.87 623.95 513.8 623.95H483.47V668.99H458.71V543.39H458.7ZM520.79 602.61C525.81 602.61 529.76 601.26 532.63 598.57C535.5 595.88 536.94 592.38 536.94 588.07V576.41C536.94 572.94 535.86 570.16 533.71 568.06C531.56 565.97 528.68 564.92 525.1 564.92H483.47V602.61H520.79Z" fill="white"/>
<path d="M598.94 664.43C591.7 660.42 586.08 654.8 582.07 647.56C578.06 640.32 576.06 631.92 576.06 622.35V590.05C576.06 580.48 578.06 572.08 582.07 564.84C586.08 557.6 591.7 551.98 598.94 547.97C606.18 543.96 614.52 541.96 623.98 541.96H643C652.45 541.96 660.79 543.96 668.03 547.97C675.27 551.98 680.89 557.6 684.9 564.84C688.91 572.08 690.91 580.48 690.91 590.05V622.35C690.91 631.92 688.91 640.33 684.9 647.56C680.89 654.8 675.27 660.42 668.03 664.43C660.79 668.44 652.45 670.44 643 670.44H623.98C614.52 670.44 606.18 668.44 598.94 664.43ZM643 648.55C649.94 648.55 655.53 646.04 659.78 641.01C664.03 635.99 666.15 629.41 666.15 621.27V591.12C666.15 582.99 664.02 576.41 659.78 571.38C655.53 566.36 649.94 563.84 643 563.84H623.98C617.04 563.84 611.45 566.35 607.2 571.38C602.95 576.41 600.83 582.99 600.83 591.12V621.27C600.83 629.41 602.95 635.99 607.2 641.01C611.45 646.04 617.04 648.55 623.98 648.55H643Z" fill="white"/>
<path d="M716.4 659.41C708.98 652.05 705.27 641.8 705.27 628.63H729.68C729.68 634.85 731.26 639.73 734.44 643.26C737.61 646.79 742.01 648.55 747.63 648.55H767.54C772.8 648.55 777.08 647.44 780.37 645.23C783.66 643.02 785.31 640.06 785.31 636.35V630.25C785.31 624.39 781 620.74 772.39 619.3L739.37 613.74C728.6 611.95 720.44 608.51 714.87 603.42C709.31 598.34 706.52 591.84 706.52 583.95V573.9C706.52 567.56 708.23 561.97 711.64 557.12C715.05 552.27 719.89 548.54 726.18 545.9C732.46 543.27 739.73 541.95 747.98 541.95H768.26C776.04 541.95 782.91 543.57 788.9 546.8C794.88 550.03 799.52 554.55 802.81 560.35C806.1 566.15 807.75 572.88 807.75 580.54H783.34C783.34 575.52 781.96 571.48 779.21 568.43C776.46 565.38 772.81 563.85 768.26 563.85H747.98C742.95 563.85 738.92 564.93 735.87 567.08C732.82 569.23 731.29 572.1 731.29 575.69V580.54C731.29 586.52 735.42 590.23 743.67 591.67L776.51 597.41C787.4 599.33 795.71 602.7 801.46 607.55C807.2 612.4 810.07 618.65 810.07 626.3V638.14C810.07 644.48 808.3 650.1 804.78 655.01C801.25 659.92 796.31 663.71 789.97 666.41C783.63 669.1 776.27 670.45 767.9 670.45H747.26C734.1 670.44 723.81 666.77 716.4 659.41Z" fill="white"/>
<path d="M0.209961 712.58H31.46C36.27 712.58 40.14 713.95 43.08 716.67C46.02 719.4 47.49 722.99 47.49 727.42V733.9C47.49 737.02 46.52 739.78 44.6 742.18C42.67 744.58 40.04 746.32 36.72 747.4V747.49C40.22 749.59 42.83 753.43 44.55 759.01L49.45 775.57H40.72L35.91 759.37C35.08 756.55 33.76 754.33 31.95 752.71C30.14 751.09 28.08 750.28 25.76 750.28H8.66996V775.57H0.209961V712.58ZM29.15 742.73C32.12 742.73 34.51 741.92 36.32 740.3C38.13 738.68 39.04 736.55 39.04 733.91V727.34C39.04 725.18 38.33 723.44 36.9 722.12C35.48 720.8 33.61 720.14 31.29 720.14H8.66996V742.73H29.15Z" fill="white"/>
<path d="M89.6501 773.78C88.4301 772.58 87.8201 770.93 87.8201 768.83V712.58H131.54V720.05H96.2801V739.67H128.86V747.05H96.2801V768.11H131.54V775.58H94.5901C92.5101 775.58 90.8601 774.98 89.6501 773.78Z" fill="white"/>
<path d="M170.98 712.58H178.81L200.44 752.99L221.54 712.58H229.37V775.58H221.09V728.6L204.71 759.56C204 760.88 203.33 761.81 202.71 762.35C202.09 762.89 201.36 763.16 200.53 763.16H198.13L179.34 728.6V775.58H170.97V712.58H170.98Z" fill="white"/>
<path d="M280.08 773.42C276.79 771.5 274.23 768.8 272.42 765.32C270.61 761.84 269.7 757.79 269.7 753.17V734.99C269.7 730.37 270.6 726.32 272.42 722.84C274.23 719.36 276.8 716.66 280.12 714.74C283.44 712.82 287.27 711.86 291.61 711.86H301.05C305.38 711.86 309.2 712.82 312.49 714.74C315.78 716.66 318.33 719.36 320.15 722.84C321.96 726.32 322.87 730.37 322.87 734.99V753.17C322.87 757.79 321.96 761.84 320.15 765.32C318.34 768.8 315.77 771.5 312.45 773.42C309.13 775.34 305.33 776.3 301.05 776.3H291.52C287.19 776.3 283.38 775.34 280.08 773.42ZM300.87 768.65C304.91 768.65 308.17 767.23 310.66 764.37C313.15 761.52 314.4 757.73 314.4 752.99V735.17C314.4 730.43 313.15 726.64 310.66 723.79C308.17 720.94 304.9 719.51 300.87 719.51H291.7C287.66 719.51 284.4 720.94 281.91 723.79C279.42 726.64 278.17 730.44 278.17 735.17V752.99C278.17 757.73 279.4 761.53 281.87 764.37C284.33 767.22 287.58 768.65 291.62 768.65H300.87Z" fill="white"/>
<path d="M365.02 773.78C363.8 772.58 363.19 770.93 363.19 768.83V712.58H390.35C394.86 712.58 398.82 713.45 402.24 715.19C405.65 716.93 408.29 719.41 410.16 722.61C412.03 725.82 412.96 729.49 412.96 733.63V752.71C412.96 760.21 411.08 765.9 407.31 769.77C403.54 773.64 398.01 775.57 390.71 775.57H369.96C367.88 775.58 366.24 774.98 365.02 773.78ZM390.44 767.93C395.07 767.93 398.57 766.64 400.95 764.06C403.32 761.48 404.51 757.64 404.51 752.54V733.82C404.51 729.74 403.19 726.45 400.55 723.96C397.91 721.47 394.42 720.23 390.09 720.23H371.66V767.93H390.44Z" fill="white"/>
<path d="M454.76 773.78C453.54 772.58 452.93 770.93 452.93 768.83V712.58H496.64V720.05H461.38V739.67H493.96V747.05H461.38V768.11H496.64V775.58H459.69C457.63 775.58 455.98 774.98 454.76 773.78Z" fill="white"/>
<path d="M537.92 773.78C536.7 772.58 536.09 770.96 536.09 768.92V712.58H544.55V768.02H578.38V775.58H542.86C540.78 775.58 539.13 774.98 537.92 773.78Z" fill="white"/>
<path d="M616.58 712.58H625.04V775.58H616.58V712.58Z" fill="white"/>
<path d="M668.04 712.58H675.87L708.81 761.81V712.58H717.09V775.58H709.34L676.31 726.53V775.58H668.03V712.58H668.04Z" fill="white"/>
<path d="M767.53 773.42C764.29 771.5 761.8 768.79 760.05 765.28C758.3 761.77 757.42 757.71 757.42 753.08V735.08C757.42 730.46 758.32 726.4 760.14 722.88C761.95 719.37 764.49 716.66 767.75 714.74C771.01 712.82 774.78 711.86 779.06 711.86H788.68C792.78 711.86 796.4 712.71 799.54 714.42C802.69 716.13 805.12 718.56 806.84 721.71C808.56 724.86 809.42 728.48 809.42 732.56H801.14C801.14 728.66 800 725.51 797.71 723.11C795.42 720.71 792.41 719.51 788.67 719.51H779.05C775.13 719.51 771.96 720.95 769.52 723.83C767.09 726.71 765.87 730.52 765.87 735.26V752.9C765.87 757.64 767.04 761.45 769.39 764.33C771.74 767.21 774.84 768.65 778.69 768.65H788.66C792.46 768.65 795.56 767.3 797.96 764.6C800.36 761.9 801.57 758.42 801.57 754.16V749.84H784.3V742.37H809.85V754.16C809.85 758.48 808.96 762.32 807.18 765.68C805.4 769.04 802.91 771.65 799.7 773.51C796.49 775.37 792.81 776.3 788.66 776.3H778.69C774.49 776.3 770.76 775.34 767.53 773.42Z" fill="white"/>
<path d="M385.8 402.78C390.428 402.78 394.18 399.028 394.18 394.4C394.18 389.772 390.428 386.02 385.8 386.02C381.172 386.02 377.42 389.772 377.42 394.4C377.42 399.028 381.172 402.78 385.8 402.78Z" fill="white"/>
<path d="M399.49 0L238.35 95.01V45.86H188.35V124.49L110.98 170.11V228.15L188.35 182.54L238.35 153.06L399.49 58.05L498.55 116.45V58.4L399.49 0Z" fill="white"/>
<path d="M288.82 216.1L288.45 158.27L238.35 187.81L188.35 217.29L137.07 247.53L110.98 262.91V320.95L137.07 305.57L168.32 287.15V287.14L186.29 276.55L188.35 275.34V462.8H238.35V245.86L268.87 227.86L288.82 216.1Z" fill="white"/>
<path d="M399.49 92.8101L318.28 140.69L318.65 198.51L318.87 198.38L352.93 178.3L399.49 150.85L418.03 161.78V230.41L318.87 290V233.13L289.04 250.72L268.87 262.61V462.8H318.87V348.33L468.03 258.7V133.22L418.03 103.74L399.49 92.8101Z" fill="white"/>
<path d="M417.01 324.93V462.8H349.4V365.48L417.01 324.93Z" fill="white"/>
<path d="M468.09 462.78H427.94V454.78H460.09V353.96H427.94V345.96H468.09V462.78Z" fill="white"/>
<path d="M662.55 398L637.99 354.44L623.28 328.35L621.35 324.93L616.02 315.49H638.55H688.55V269.11C688.57 269.07 688.6 269.02 688.62 268.98V265.49V200.78V184.63C688.6 184.59 688.58 184.55 688.55 184.51V170.58L658.82 153.03L658.68 152.94C657.68 152.3 656.68 151.66 655.64 151.06L638.55 140.98L548.56 87.89L524.55 73.73L498.56 58.4V106.47V116.45V116.47L632.59 195.61L632.62 195.63C634.86 197.13 636.83 198.75 638.55 200.47V253.94V265.49H548.56V180.69L498.56 151.21V462.8H548.56V315.49H558.64L563.96 324.93L566.23 328.95L594.92 379.83L594.91 379.84L619.47 423.4L619.48 423.39L641.7 462.8H699.1L662.55 398Z" fill="#03AFED"/>
</svg>
